<mxfile host="app.diagrams.net" modified="2022-10-07T03:20:04.478Z" agent="5.0 (Windows NT 10.0; Win64; x64) AppleWebKit/537.36 (KHTML, like Gecko) Chrome/106.0.0.0 Safari/537.36" etag="tCUbVdmjzNQ7WndQsdZP" version="20.4.0" type="github">
  <diagram id="_DMwPXfOo5LLaddYjXr0" name="第 1 页">
    <mxGraphModel dx="1278" dy="579" grid="1" gridSize="10" guides="1" tooltips="1" connect="1" arrows="1" fold="1" page="1" pageScale="1" pageWidth="827" pageHeight="1169" math="0" shadow="0">
      <root>
        <mxCell id="0" />
        <mxCell id="1" parent="0" />
        <mxCell id="9INp6jQoci3NKrgzeGBN-30" value="" style="rounded=0;whiteSpace=wrap;html=1;" vertex="1" parent="1">
          <mxGeometry x="210" y="30" width="830" height="460" as="geometry" />
        </mxCell>
        <mxCell id="9INp6jQoci3NKrgzeGBN-2" value="" style="rounded=1;whiteSpace=wrap;html=1;fillColor=#dae8fc;strokeColor=#6c8ebf;" vertex="1" parent="1">
          <mxGeometry x="250" y="100" width="450" height="160" as="geometry" />
        </mxCell>
        <mxCell id="9INp6jQoci3NKrgzeGBN-3" value="500MB" style="rounded=0;whiteSpace=wrap;html=1;" vertex="1" parent="1">
          <mxGeometry x="280" y="145" width="80" height="60" as="geometry" />
        </mxCell>
        <mxCell id="9INp6jQoci3NKrgzeGBN-4" value="readLine().hashCode%2000" style="shape=flexArrow;endArrow=classic;html=1;rounded=0;endWidth=20;width=20;" edge="1" parent="1">
          <mxGeometry x="-0.1" width="50" height="50" relative="1" as="geometry">
            <mxPoint x="370" y="180" as="sourcePoint" />
            <mxPoint x="570" y="180" as="targetPoint" />
            <Array as="points">
              <mxPoint x="460" y="179.5" />
            </Array>
            <mxPoint y="1" as="offset" />
          </mxGeometry>
        </mxCell>
        <mxCell id="9INp6jQoci3NKrgzeGBN-6" value="0" style="rounded=0;whiteSpace=wrap;html=1;" vertex="1" parent="1">
          <mxGeometry x="590" y="125" width="60" height="30" as="geometry" />
        </mxCell>
        <mxCell id="9INp6jQoci3NKrgzeGBN-7" value="1" style="rounded=0;whiteSpace=wrap;html=1;" vertex="1" parent="1">
          <mxGeometry x="590" y="165" width="60" height="30" as="geometry" />
        </mxCell>
        <mxCell id="9INp6jQoci3NKrgzeGBN-8" value="2000" style="rounded=0;whiteSpace=wrap;html=1;" vertex="1" parent="1">
          <mxGeometry x="590" y="205" width="60" height="30" as="geometry" />
        </mxCell>
        <mxCell id="9INp6jQoci3NKrgzeGBN-9" value="" style="rounded=1;whiteSpace=wrap;html=1;fillColor=#ffe6cc;strokeColor=#d79b00;" vertex="1" parent="1">
          <mxGeometry x="740" y="100" width="250" height="160" as="geometry" />
        </mxCell>
        <mxCell id="9INp6jQoci3NKrgzeGBN-10" value="0" style="rounded=0;whiteSpace=wrap;html=1;" vertex="1" parent="1">
          <mxGeometry x="590" y="125" width="60" height="30" as="geometry" />
        </mxCell>
        <mxCell id="9INp6jQoci3NKrgzeGBN-11" value="1" style="rounded=0;whiteSpace=wrap;html=1;" vertex="1" parent="1">
          <mxGeometry x="590" y="165" width="60" height="30" as="geometry" />
        </mxCell>
        <mxCell id="9INp6jQoci3NKrgzeGBN-12" value="0" style="rounded=0;whiteSpace=wrap;html=1;" vertex="1" parent="1">
          <mxGeometry x="770" y="200" width="60" height="30" as="geometry" />
        </mxCell>
        <mxCell id="9INp6jQoci3NKrgzeGBN-13" value="0" style="rounded=0;whiteSpace=wrap;html=1;" vertex="1" parent="1">
          <mxGeometry x="770" y="120" width="60" height="30" as="geometry" />
        </mxCell>
        <mxCell id="9INp6jQoci3NKrgzeGBN-14" value="0" style="rounded=0;whiteSpace=wrap;html=1;" vertex="1" parent="1">
          <mxGeometry x="770" y="160" width="60" height="30" as="geometry" />
        </mxCell>
        <mxCell id="9INp6jQoci3NKrgzeGBN-15" value="读取到内存判定" style="shape=flexArrow;endArrow=classic;html=1;rounded=0;endWidth=20;width=20;" edge="1" parent="1">
          <mxGeometry x="-0.1" width="50" height="50" relative="1" as="geometry">
            <mxPoint x="850" y="175" as="sourcePoint" />
            <mxPoint x="970" y="175" as="targetPoint" />
            <Array as="points">
              <mxPoint x="940" y="174.5" />
            </Array>
            <mxPoint y="1" as="offset" />
          </mxGeometry>
        </mxCell>
        <mxCell id="9INp6jQoci3NKrgzeGBN-16" value="" style="rounded=1;whiteSpace=wrap;html=1;fillColor=#d5e8d4;strokeColor=#82b366;" vertex="1" parent="1">
          <mxGeometry x="254" y="290" width="450" height="160" as="geometry" />
        </mxCell>
        <mxCell id="9INp6jQoci3NKrgzeGBN-17" value="500MB" style="rounded=0;whiteSpace=wrap;html=1;" vertex="1" parent="1">
          <mxGeometry x="284" y="335" width="80" height="60" as="geometry" />
        </mxCell>
        <mxCell id="9INp6jQoci3NKrgzeGBN-18" value="readLine().hashCode%2000" style="shape=flexArrow;endArrow=classic;html=1;rounded=0;endWidth=20;width=20;" edge="1" parent="1">
          <mxGeometry x="-0.1" width="50" height="50" relative="1" as="geometry">
            <mxPoint x="374" y="370" as="sourcePoint" />
            <mxPoint x="574" y="370" as="targetPoint" />
            <Array as="points">
              <mxPoint x="464" y="369.5" />
            </Array>
            <mxPoint y="1" as="offset" />
          </mxGeometry>
        </mxCell>
        <mxCell id="9INp6jQoci3NKrgzeGBN-19" value="0" style="rounded=0;whiteSpace=wrap;html=1;" vertex="1" parent="1">
          <mxGeometry x="594" y="315" width="60" height="30" as="geometry" />
        </mxCell>
        <mxCell id="9INp6jQoci3NKrgzeGBN-20" value="1" style="rounded=0;whiteSpace=wrap;html=1;" vertex="1" parent="1">
          <mxGeometry x="594" y="355" width="60" height="30" as="geometry" />
        </mxCell>
        <mxCell id="9INp6jQoci3NKrgzeGBN-21" value="2000" style="rounded=0;whiteSpace=wrap;html=1;" vertex="1" parent="1">
          <mxGeometry x="594" y="395" width="60" height="30" as="geometry" />
        </mxCell>
        <mxCell id="9INp6jQoci3NKrgzeGBN-22" value="" style="rounded=1;whiteSpace=wrap;html=1;fillColor=#f8cecc;strokeColor=#b85450;" vertex="1" parent="1">
          <mxGeometry x="744" y="290" width="250" height="160" as="geometry" />
        </mxCell>
        <mxCell id="9INp6jQoci3NKrgzeGBN-23" value="0" style="rounded=0;whiteSpace=wrap;html=1;" vertex="1" parent="1">
          <mxGeometry x="594" y="315" width="60" height="30" as="geometry" />
        </mxCell>
        <mxCell id="9INp6jQoci3NKrgzeGBN-24" value="1" style="rounded=0;whiteSpace=wrap;html=1;" vertex="1" parent="1">
          <mxGeometry x="594" y="355" width="60" height="30" as="geometry" />
        </mxCell>
        <mxCell id="9INp6jQoci3NKrgzeGBN-25" value="1" style="rounded=0;whiteSpace=wrap;html=1;" vertex="1" parent="1">
          <mxGeometry x="774" y="390" width="60" height="30" as="geometry" />
        </mxCell>
        <mxCell id="9INp6jQoci3NKrgzeGBN-26" value="1" style="rounded=0;whiteSpace=wrap;html=1;" vertex="1" parent="1">
          <mxGeometry x="774" y="310" width="60" height="30" as="geometry" />
        </mxCell>
        <mxCell id="9INp6jQoci3NKrgzeGBN-27" value="1" style="rounded=0;whiteSpace=wrap;html=1;" vertex="1" parent="1">
          <mxGeometry x="774" y="350" width="60" height="30" as="geometry" />
        </mxCell>
        <mxCell id="9INp6jQoci3NKrgzeGBN-28" value="读取到内存判定" style="shape=flexArrow;endArrow=classic;html=1;rounded=0;endWidth=20;width=20;" edge="1" parent="1">
          <mxGeometry x="-0.1" width="50" height="50" relative="1" as="geometry">
            <mxPoint x="854" y="365" as="sourcePoint" />
            <mxPoint x="974" y="365" as="targetPoint" />
            <Array as="points">
              <mxPoint x="944" y="364.5" />
            </Array>
            <mxPoint y="1" as="offset" />
          </mxGeometry>
        </mxCell>
      </root>
    </mxGraphModel>
  </diagram>
</mxfile>
